<mxfile host="app.diagrams.net" modified="2021-05-21T07:51:43.715Z" agent="5.0 (Macintosh; Intel Mac OS X 10_16_0) AppleWebKit/537.36 (KHTML, like Gecko) Chrome/81.0.4044.138 Safari/537.36" etag="Vrgxh4UWOqjFWr1WlsOW" version="14.6.13" type="github">
  <diagram id="kgpKYQtTHZ0yAKxKKP6v" name="Page-1">
    <mxGraphModel dx="1298" dy="752" grid="1" gridSize="10" guides="1" tooltips="1" connect="1" arrows="1" fold="1" page="1" pageScale="1" pageWidth="850" pageHeight="1100" math="0" shadow="0">
      <root>
        <mxCell id="0" />
        <mxCell id="1" parent="0" />
        <mxCell id="3nuBFxr9cyL0pnOWT2aG-1" value="DM" style="shape=umlLifeline;perimeter=lifelinePerimeter;container=1;collapsible=0;recursiveResize=0;rounded=0;shadow=0;strokeWidth=1;" parent="1" vertex="1">
          <mxGeometry x="120" y="80" width="100" height="800" as="geometry" />
        </mxCell>
        <mxCell id="3nuBFxr9cyL0pnOWT2aG-2" value="" style="points=[];perimeter=orthogonalPerimeter;rounded=0;shadow=0;strokeWidth=1;" parent="3nuBFxr9cyL0pnOWT2aG-1" vertex="1">
          <mxGeometry x="45" y="50" width="10" height="190" as="geometry" />
        </mxCell>
        <mxCell id="3nuBFxr9cyL0pnOWT2aG-3" value="login" style="verticalAlign=bottom;startArrow=oval;endArrow=block;startSize=8;shadow=0;strokeWidth=1;" parent="3nuBFxr9cyL0pnOWT2aG-1" target="3nuBFxr9cyL0pnOWT2aG-2" edge="1">
          <mxGeometry relative="1" as="geometry">
            <mxPoint x="-80" y="70" as="sourcePoint" />
          </mxGeometry>
        </mxCell>
        <mxCell id="3nuBFxr9cyL0pnOWT2aG-5" value="云桌面（Agent）" style="shape=umlLifeline;perimeter=lifelinePerimeter;container=1;collapsible=0;recursiveResize=0;rounded=0;shadow=0;strokeWidth=1;" parent="1" vertex="1">
          <mxGeometry x="300" y="80" width="100" height="270" as="geometry" />
        </mxCell>
        <mxCell id="3nuBFxr9cyL0pnOWT2aG-6" value="" style="points=[];perimeter=orthogonalPerimeter;rounded=0;shadow=0;strokeWidth=1;" parent="3nuBFxr9cyL0pnOWT2aG-5" vertex="1">
          <mxGeometry x="45" y="70" width="10" height="160" as="geometry" />
        </mxCell>
        <mxCell id="3nuBFxr9cyL0pnOWT2aG-7" value="return" style="verticalAlign=bottom;endArrow=open;dashed=1;endSize=8;exitX=0;exitY=0.95;shadow=0;strokeWidth=1;" parent="1" source="3nuBFxr9cyL0pnOWT2aG-6" target="3nuBFxr9cyL0pnOWT2aG-2" edge="1">
          <mxGeometry relative="1" as="geometry">
            <mxPoint x="275" y="236" as="targetPoint" />
          </mxGeometry>
        </mxCell>
        <mxCell id="3nuBFxr9cyL0pnOWT2aG-8" value="login" style="verticalAlign=bottom;endArrow=block;entryX=-0.4;entryY=0.069;shadow=0;strokeWidth=1;entryDx=0;entryDy=0;entryPerimeter=0;" parent="1" source="3nuBFxr9cyL0pnOWT2aG-2" target="3nuBFxr9cyL0pnOWT2aG-6" edge="1">
          <mxGeometry relative="1" as="geometry">
            <mxPoint x="275" y="160" as="sourcePoint" />
            <Array as="points">
              <mxPoint x="220" y="160" />
            </Array>
          </mxGeometry>
        </mxCell>
        <mxCell id="3nuBFxr9cyL0pnOWT2aG-9" value="save user" style="verticalAlign=bottom;endArrow=block;shadow=0;strokeWidth=1;" parent="1" source="3nuBFxr9cyL0pnOWT2aG-6" edge="1">
          <mxGeometry relative="1" as="geometry">
            <mxPoint x="240" y="200" as="sourcePoint" />
            <mxPoint x="420" y="190" as="targetPoint" />
          </mxGeometry>
        </mxCell>
        <mxCell id="3nuBFxr9cyL0pnOWT2aG-10" value="" style="verticalAlign=bottom;endArrow=open;dashed=1;endSize=8;exitX=1;exitY=0.95;shadow=0;strokeWidth=1;" parent="1" target="3nuBFxr9cyL0pnOWT2aG-6" edge="1">
          <mxGeometry relative="1" as="geometry">
            <mxPoint x="240" y="257" as="targetPoint" />
            <mxPoint x="410" y="266" as="sourcePoint" />
            <Array as="points">
              <mxPoint x="370" y="266" />
            </Array>
          </mxGeometry>
        </mxCell>
        <mxCell id="w74EkdeEiIO0DaqXyJ08-1" value="AppCenterServer" style="shape=umlLifeline;perimeter=lifelinePerimeter;container=1;collapsible=0;recursiveResize=0;rounded=0;shadow=0;strokeWidth=1;" vertex="1" parent="1">
          <mxGeometry x="480" y="80" width="100" height="400" as="geometry" />
        </mxCell>
        <mxCell id="w74EkdeEiIO0DaqXyJ08-3" value="企业用户" style="shape=umlActor;verticalLabelPosition=bottom;verticalAlign=top;html=1;" vertex="1" parent="1">
          <mxGeometry x="10" y="60" width="30" height="60" as="geometry" />
        </mxCell>
        <mxCell id="w74EkdeEiIO0DaqXyJ08-6" value="注&lt;br&gt;册&lt;br&gt;表" style="shape=document;whiteSpace=wrap;html=1;boundedLbl=1;" vertex="1" parent="1">
          <mxGeometry x="420" y="195" width="40" height="70" as="geometry" />
        </mxCell>
        <mxCell id="w74EkdeEiIO0DaqXyJ08-12" value="" style="edgeStyle=orthogonalEdgeStyle;rounded=0;orthogonalLoop=1;jettySize=auto;html=1;" edge="1" parent="1">
          <mxGeometry relative="1" as="geometry">
            <mxPoint x="40" y="370" as="sourcePoint" />
            <mxPoint x="340" y="370" as="targetPoint" />
          </mxGeometry>
        </mxCell>
        <mxCell id="w74EkdeEiIO0DaqXyJ08-13" value="openAppCenter" style="edgeLabel;html=1;align=center;verticalAlign=middle;resizable=0;points=[];" vertex="1" connectable="0" parent="w74EkdeEiIO0DaqXyJ08-12">
          <mxGeometry x="-0.136" y="-2" relative="1" as="geometry">
            <mxPoint x="32" y="-12" as="offset" />
          </mxGeometry>
        </mxCell>
        <mxCell id="w74EkdeEiIO0DaqXyJ08-10" value="" style="points=[];perimeter=orthogonalPerimeter;rounded=0;shadow=0;strokeWidth=1;" vertex="1" parent="1">
          <mxGeometry x="345" y="350" width="10" height="130" as="geometry" />
        </mxCell>
        <mxCell id="w74EkdeEiIO0DaqXyJ08-14" value="注&lt;br&gt;册&lt;br&gt;表" style="shape=document;whiteSpace=wrap;html=1;boundedLbl=1;" vertex="1" parent="1">
          <mxGeometry x="420" y="370" width="40" height="70" as="geometry" />
        </mxCell>
        <mxCell id="w74EkdeEiIO0DaqXyJ08-15" value="get user" style="verticalAlign=bottom;endArrow=block;entryX=1;entryY=0;shadow=0;strokeWidth=1;" edge="1" parent="1">
          <mxGeometry relative="1" as="geometry">
            <mxPoint x="360" y="369.5" as="sourcePoint" />
            <mxPoint x="415" y="369.5" as="targetPoint" />
          </mxGeometry>
        </mxCell>
        <mxCell id="w74EkdeEiIO0DaqXyJ08-16" value="" style="verticalAlign=bottom;endArrow=open;dashed=1;endSize=8;exitX=1;exitY=0.95;shadow=0;strokeWidth=1;" edge="1" parent="1">
          <mxGeometry relative="1" as="geometry">
            <mxPoint x="365" y="439" as="targetPoint" />
            <mxPoint x="420" y="439" as="sourcePoint" />
            <Array as="points">
              <mxPoint x="380" y="439" />
            </Array>
          </mxGeometry>
        </mxCell>
        <mxCell id="w74EkdeEiIO0DaqXyJ08-17" value="" style="endArrow=none;dashed=1;html=1;entryX=0.9;entryY=1.038;entryDx=0;entryDy=0;entryPerimeter=0;" edge="1" parent="1" target="w74EkdeEiIO0DaqXyJ08-10">
          <mxGeometry width="50" height="50" relative="1" as="geometry">
            <mxPoint x="353" y="620" as="sourcePoint" />
            <mxPoint x="353" y="490" as="targetPoint" />
          </mxGeometry>
        </mxCell>
        <mxCell id="w74EkdeEiIO0DaqXyJ08-18" value="" style="endArrow=classic;html=1;" edge="1" parent="1">
          <mxGeometry width="50" height="50" relative="1" as="geometry">
            <mxPoint x="360" y="479" as="sourcePoint" />
            <mxPoint x="520" y="479" as="targetPoint" />
          </mxGeometry>
        </mxCell>
        <mxCell id="w74EkdeEiIO0DaqXyJ08-20" value="" style="points=[];perimeter=orthogonalPerimeter;rounded=0;shadow=0;strokeWidth=1;" vertex="1" parent="1">
          <mxGeometry x="525" y="480" width="10" height="140" as="geometry" />
        </mxCell>
        <mxCell id="w74EkdeEiIO0DaqXyJ08-21" value="getAppList(User)" style="text;html=1;align=center;verticalAlign=middle;resizable=0;points=[];autosize=1;strokeColor=none;" vertex="1" parent="1">
          <mxGeometry x="375" y="460" width="110" height="20" as="geometry" />
        </mxCell>
        <mxCell id="w74EkdeEiIO0DaqXyJ08-24" value="" style="endArrow=classic;html=1;dashed=1;" edge="1" parent="1">
          <mxGeometry width="50" height="50" relative="1" as="geometry">
            <mxPoint x="520" y="620" as="sourcePoint" />
            <mxPoint x="360" y="620" as="targetPoint" />
          </mxGeometry>
        </mxCell>
        <mxCell id="w74EkdeEiIO0DaqXyJ08-34" value="return" style="edgeLabel;html=1;align=center;verticalAlign=middle;resizable=0;points=[];" vertex="1" connectable="0" parent="w74EkdeEiIO0DaqXyJ08-24">
          <mxGeometry x="0.25" y="-2" relative="1" as="geometry">
            <mxPoint as="offset" />
          </mxGeometry>
        </mxCell>
        <mxCell id="w74EkdeEiIO0DaqXyJ08-25" value="" style="points=[];perimeter=orthogonalPerimeter;rounded=0;shadow=0;strokeWidth=1;" vertex="1" parent="1">
          <mxGeometry x="348" y="620" width="10" height="130" as="geometry" />
        </mxCell>
        <mxCell id="w74EkdeEiIO0DaqXyJ08-27" value="应&lt;br&gt;用&lt;br&gt;列&lt;br&gt;表" style="shape=document;whiteSpace=wrap;html=1;boundedLbl=1;" vertex="1" parent="1">
          <mxGeometry x="420" y="670" width="40" height="80" as="geometry" />
        </mxCell>
        <mxCell id="w74EkdeEiIO0DaqXyJ08-28" value="show" style="verticalAlign=bottom;endArrow=block;entryX=1;entryY=0;shadow=0;strokeWidth=1;" edge="1" parent="1">
          <mxGeometry relative="1" as="geometry">
            <mxPoint x="365" y="670" as="sourcePoint" />
            <mxPoint x="420" y="670" as="targetPoint" />
          </mxGeometry>
        </mxCell>
        <mxCell id="w74EkdeEiIO0DaqXyJ08-29" value="" style="verticalAlign=bottom;endArrow=open;dashed=1;endSize=8;exitX=1;exitY=0.95;shadow=0;strokeWidth=1;" edge="1" parent="1">
          <mxGeometry relative="1" as="geometry">
            <mxPoint x="358" y="750" as="targetPoint" />
            <mxPoint x="413" y="750" as="sourcePoint" />
            <Array as="points">
              <mxPoint x="373" y="750" />
            </Array>
          </mxGeometry>
        </mxCell>
        <mxCell id="w74EkdeEiIO0DaqXyJ08-30" value="" style="endArrow=none;dashed=1;html=1;entryX=0.9;entryY=1.038;entryDx=0;entryDy=0;entryPerimeter=0;" edge="1" parent="1">
          <mxGeometry width="50" height="50" relative="1" as="geometry">
            <mxPoint x="352.5" y="885.06" as="sourcePoint" />
            <mxPoint x="353.5" y="750" as="targetPoint" />
          </mxGeometry>
        </mxCell>
        <mxCell id="w74EkdeEiIO0DaqXyJ08-31" value="" style="endArrow=none;dashed=1;html=1;entryX=0.9;entryY=1.038;entryDx=0;entryDy=0;entryPerimeter=0;" edge="1" parent="1">
          <mxGeometry width="50" height="50" relative="1" as="geometry">
            <mxPoint x="531" y="880" as="sourcePoint" />
            <mxPoint x="530.5" y="630" as="targetPoint" />
          </mxGeometry>
        </mxCell>
        <mxCell id="w74EkdeEiIO0DaqXyJ08-35" value="" style="endArrow=none;dashed=1;html=1;entryX=0.9;entryY=1.038;entryDx=0;entryDy=0;entryPerimeter=0;" edge="1" parent="1">
          <mxGeometry width="50" height="50" relative="1" as="geometry">
            <mxPoint x="30.5" y="880" as="sourcePoint" />
            <mxPoint x="30" y="155" as="targetPoint" />
          </mxGeometry>
        </mxCell>
        <mxCell id="w74EkdeEiIO0DaqXyJ08-36" value="" style="endArrow=classic;html=1;dashed=1;" edge="1" parent="1">
          <mxGeometry width="50" height="50" relative="1" as="geometry">
            <mxPoint x="350" y="790" as="sourcePoint" />
            <mxPoint x="40" y="790" as="targetPoint" />
          </mxGeometry>
        </mxCell>
        <mxCell id="w74EkdeEiIO0DaqXyJ08-37" value="return" style="edgeLabel;html=1;align=center;verticalAlign=middle;resizable=0;points=[];" vertex="1" connectable="0" parent="w74EkdeEiIO0DaqXyJ08-36">
          <mxGeometry x="0.25" y="-2" relative="1" as="geometry">
            <mxPoint as="offset" />
          </mxGeometry>
        </mxCell>
      </root>
    </mxGraphModel>
  </diagram>
</mxfile>
